<svg width="24" height="24" viewBox="0 0 24 24" fill="none" xmlns="http://www.w3.org/2000/svg">
<path d="M20.6473 10.7373L5.5273 2.10721C5.00548 1.81449 4.35701 1.87495 3.89829 2.25908C3.43957 2.64322 3.26617 3.27099 3.4627 3.83611L6.2527 11.9784C6.25235 11.9814 6.25235 11.9844 6.2527 11.9874C6.2522 11.9904 6.2522 11.9934 6.2527 11.9964L3.4627 20.1567C3.30671 20.5973 3.37426 21.0862 3.64387 21.468C3.91348 21.8498 4.35162 22.0769 4.819 22.0773C5.06891 22.0767 5.31442 22.0116 5.5318 21.8883L20.6437 13.2438C21.0976 12.9896 21.379 12.5103 21.3799 11.9901C21.3809 11.4699 21.1012 10.9896 20.6482 10.7337L20.6473 10.7373ZM4.819 20.6373V20.6292L7.5316 12.7173H12.739C13.1366 12.7173 13.459 12.395 13.459 11.9973C13.459 11.5997 13.1366 11.2773 12.739 11.2773H7.5388L4.8244 3.36811L4.819 3.35731L19.939 11.982L4.819 20.6373Z" fill="#171A1F"/>
</svg>
